<svg xmlns="http://www.w3.org/2000/svg" viewBox="0 0 96 64">
  <!-- Refined Bar Crew - Menu/Merch Style -->
  <!-- Three characters with more personality -->
  <!-- Lefty -->
  <rect x="8" y="30" width="16" height="26" rx="2" fill="#07111d"/>
  <circle cx="16" y="22" r="3" fill="#07111d"/>
  <circle cx="16" y="22" r="1" fill="#22d3ee"/>
  <ellipse cx="16" cy="14" rx="1.5" ry="1" fill="none" stroke="#07111d" stroke-width="1.5"/>
  <line x1="11" y1="34" x2="7" y2="28" stroke="#07111d" stroke-width="1.5" stroke-linecap="round"/>
  <line x1="21" y1="34" x2="25" y2="28" stroke="#07111d" stroke-width="1.5" stroke-linecap="round"/>
  <!-- Middle -->
  <rect x="38" y="16" width="16" height="40" rx="2" fill="#07111d"/>
  <circle cx="46" y="10" r="3" fill="#07111d"/>
  <circle cx="46" y="10" r="1" fill="#22d3ee"/>
  <ellipse cx="46" cy="2" rx="1.5" ry="1" fill="none" stroke="#07111d" stroke-width="1.5"/>
  <line x1="41" y1="20" x2="37" y2="14" stroke="#07111d" stroke-width="1.5" stroke-linecap="round"/>
  <line x1="51" y1="20" x2="55" y2="14" stroke="#07111d" stroke-width="1.5" stroke-linecap="round"/>
  <!-- Righty -->
  <rect x="68" y="2" width="16" height="54" rx="2" fill="#07111d"/>
  <circle cx="76" y="-4" r="3" fill="#07111d"/>
  <circle cx="76" y="-4" r="1" fill="#22d3ee"/>
  <ellipse cx="76" cy="-12" rx="1.5" ry="1" fill="none" stroke="#07111d" stroke-width="1.5"/>
  <line x1="71" y1="6" x2="67" y2="0" stroke="#07111d" stroke-width="1.5" stroke-linecap="round"/>
  <line x1="81" y1="6" x2="85" y2="0" stroke="#07111d" stroke-width="1.5" stroke-linecap="round"/>
  <!-- Details -->
  <line x1="12" y1="38" x2="12" y2="42" stroke="#22d3ee" stroke-width="1"/>
  <line x1="20" y1="38" x2="20" y2="42" stroke="#22d3ee" stroke-width="1"/>
  <line x1="40" y1="24" x2="40" y2="28" stroke="#22d3ee" stroke-width="1"/>
  <line x1="48" y1="24" x2="48" y2="28" stroke="#22d3ee" stroke-width="1"/>
  <line x1="70" y1="10" x2="70" y2="14" stroke="#22d3ee" stroke-width="1"/>
  <line x1="78" y1="10" x2="78" y2="14" stroke="#22d3ee" stroke-width="1"/>
  <line x1="10" y1="46" x2="6" y2="42" stroke="#22d3ee" stroke-width="1" stroke-linecap="round"/>
  <line x1="18" y1="46" x2="22" y2="42" stroke="#22d3ee" stroke-width="1" stroke-linecap="round"/>
  <line x1="34" y1="46" x2="30" y2="42" stroke="#22d3ee" stroke-width="1" stroke-linecap="round"/>
  <line x1="42" y1="46" x2="46" y2="42" stroke="#22d3ee" stroke-width="1" stroke-linecap="round"/>
  <line x1="64" y1="46" x2="60" y2="42" stroke="#22d3ee" stroke-width="1" stroke-linecap="round"/>
  <line x1="72" y1="46" x2="76" y2="42" stroke="#22d3ee" stroke-width="1" stroke-linecap="round"/>
</svg>
